P2
3 3
255
102
102
0
102
102
0
102
0
0
