P3
2 2
255
41
255
3
41
255
3
0
15
255
255
0
0
